<svg width="15" height="15" viewBox="0 0 15 15" fill="none" xmlns="http://www.w3.org/2000/svg">
<path d="M13.5667 6.58333C13.4385 6.58333 13.3155 6.63425 13.2249 6.72488C13.1343 6.81551 13.0833 6.9385 13.0833 7.06666V11.8333C13.0833 12.1649 12.9516 12.4828 12.7173 12.7173C12.4828 12.9516 12.1649 13.0833 11.8333 13.0833H3.16667C2.8351 13.0833 2.51722 12.9516 2.28274 12.7173C2.04836 12.4828 1.91667 12.1649 1.91667 11.8333V7.06666C1.91667 6.89394 1.82453 6.73438 1.675 6.64807C1.52546 6.56176 1.3412 6.56176 1.19167 6.64807C1.04213 6.73438 0.95 6.89395 0.95 7.06666V11.8333C0.95 12.4212 1.18354 12.985 1.59927 13.4007C2.01499 13.8164 2.57875 14.05 3.16667 14.05H11.8333C12.4212 14.05 12.985 13.8165 13.4007 13.4007C13.8165 12.985 14.05 12.4212 14.05 11.8333V7.06666C14.05 6.9385 13.9991 6.81551 13.9085 6.72488C13.8178 6.63425 13.6948 6.58333 13.5667 6.58333Z" fill="#0041A5" stroke="#0041A5" stroke-width="0.1"/>
<path d="M1.91667 5.28333H13.0833V4.89999C13.0833 4.56843 12.9516 4.25054 12.7173 4.01607C12.4828 3.78169 12.1649 3.64999 11.8333 3.64999H3.16667C2.8351 3.64999 2.51722 3.78168 2.28274 4.01606C2.28274 4.01606 2.28273 4.01607 2.28273 4.01607M1.91667 5.28333L1.86667 4.89999C1.86667 4.55516 2.00363 4.22456 2.24738 3.98071L2.28273 4.01607M1.91667 5.28333V4.89999C1.91667 4.56843 2.04836 4.25055 2.28273 4.01607M1.91667 5.28333L2.28273 4.01607M11.8333 2.68333H11.0167V1.43333C11.0167 1.26061 10.9245 1.10105 10.775 1.01473C10.6255 0.928423 10.4412 0.928423 10.2917 1.01473C10.1421 1.10105 10.05 1.26061 10.05 1.43333V2.68333H4.95V1.43333C4.95 1.26061 4.85787 1.10105 4.70833 1.01473C4.5588 0.928423 4.37453 0.928423 4.225 1.01473C4.07547 1.10105 3.98333 1.26061 3.98333 1.43333V2.68333H3.16667C2.57875 2.68333 2.01499 2.91687 1.59927 3.33259C1.18355 3.74832 0.95 4.31208 0.95 4.89999V5.76666C0.95 5.89483 1.00092 6.01782 1.09155 6.10845C1.18218 6.19907 1.30517 6.24999 1.43333 6.24999H13.5667C13.6948 6.24999 13.8178 6.19907 13.9085 6.10844C13.9991 6.01782 14.05 5.89483 14.05 5.76666V4.89999C14.05 4.31208 13.8165 3.74831 13.4007 3.33259C12.985 2.91688 12.4212 2.68333 11.8333 2.68333Z" fill="#0041A5" stroke="#0041A5" stroke-width="0.1"/>
</svg>
