<svg width="13" height="13" viewBox="0 0 13 13" fill="none" xmlns="http://www.w3.org/2000/svg">
<path fill-rule="evenodd" clip-rule="evenodd" d="M0 6.5C0 2.91 2.91 0 6.5 0C10.09 0 13 2.91 13 6.5C13 10.09 10.09 13 6.5 13C2.91 13 0 10.09 0 6.5ZM6.5 1.29983C3.62817 1.29983 1.29983 3.628 1.29983 6.5C1.29983 9.372 3.628 11.7002 6.5 11.7002C9.372 11.7002 11.7002 9.372 11.7002 6.5C11.7002 3.628 9.372 1.29983 6.5 1.29983Z" fill="#0040A2"/>
<path fill-rule="evenodd" clip-rule="evenodd" d="M6.50006 2.59995C6.85906 2.59995 7.15003 2.89092 7.15003 3.24992V5.8042C7.15003 5.98637 7.15069 6.07897 7.15689 6.14501L7.15722 6.14828L7.15972 6.15045C7.2113 6.19213 7.28791 6.24404 7.43949 6.34513L8.81061 7.25911C9.10933 7.45824 9.19006 7.86186 8.99093 8.16055C8.79179 8.45927 8.38817 8.54 8.08959 8.34086L6.71836 7.4268C6.71238 7.42278 6.7065 7.41886 6.70052 7.41483C6.5744 7.33082 6.44577 7.24507 6.34129 7.16052C6.22148 7.06335 6.09732 6.94016 6.00397 6.7655C5.91049 6.59096 5.87676 6.41923 5.8625 6.26571C5.84999 6.13186 5.8501 5.97733 5.8501 5.82576V5.80421V3.24993C5.8501 2.89093 6.14106 2.59995 6.50006 2.59995Z" fill="#0040A2"/>
</svg>
