<svg width="13" height="14" viewBox="0 0 13 14" fill="none" xmlns="http://www.w3.org/2000/svg">
<path d="M4.69369 10.9747H4.20116C4.08776 10.9747 3.99584 10.8828 3.99584 10.7694V10.2767C3.99584 10.1105 3.86106 9.97569 3.69479 9.97569H3.298C3.13172 9.97569 2.99695 10.1105 2.99695 10.2767V10.7831C2.99695 10.8964 2.90503 10.9884 2.79163 10.9884H2.299C2.13282 10.9884 1.99805 11.1231 1.99805 11.2894V11.6862C2.0053 11.8471 2.13798 11.9738 2.299 11.9736H2.80539C2.91869 11.9736 3.01061 12.0655 3.01061 12.1788V12.6852C3.01061 12.8515 3.14539 12.9863 3.31166 12.9863H3.70855C3.87474 12.9863 4.0095 12.8515 4.0095 12.6852V12.1788C4.00931 12.0707 4.09312 11.9809 4.20118 11.9736H4.70746C4.8683 11.9663 4.99498 11.8336 4.99478 11.6726V11.2758C4.99478 11.1959 4.96309 11.1193 4.90668 11.0628C4.85017 11.0064 4.77362 10.9747 4.69372 10.9747L4.69369 10.9747Z" fill="#0040A2"/>
<path d="M6.49968 0C5.57062 0 4.67959 0.369105 4.0226 1.02602C3.36559 1.68303 2.99658 2.57409 2.99658 3.50309C2.99658 4.43222 3.36561 5.32318 4.0226 5.98017C4.67961 6.63718 5.57067 7.00619 6.49968 7.00619C7.42868 7.00619 8.31976 6.63715 8.97675 5.98017C9.63376 5.32316 10.0028 4.4322 10.0028 3.50309C10.0028 2.57404 9.63374 1.683 8.97675 1.02602C8.31974 0.369105 7.42868 0 6.49968 0ZM6.49968 5.99366C5.83475 5.99366 5.19712 5.72916 4.72731 5.25857C4.25758 4.78789 3.99433 4.14979 3.99557 3.48486C3.99672 2.81994 4.26237 2.18279 4.73381 1.71382C5.20535 1.24494 5.84394 0.98284 6.50886 0.985234C7.17379 0.987716 7.81047 1.25442 8.27857 1.72682C8.74656 2.19912 9.00754 2.83817 9.00392 3.50309C9.0003 4.16487 8.73483 4.7983 8.26559 5.26498C7.79635 5.73165 7.16148 5.99366 6.4997 5.99366H6.49968Z" fill="#0040A2"/>
<path d="M9.49676 7.19786H8.5115C8.38245 7.19576 8.25626 7.23614 8.15241 7.31279C8.04856 7.38944 7.97277 7.49816 7.93678 7.62215C7.8084 8.03316 7.51011 8.36955 7.11742 8.54622C6.72473 8.72281 6.27514 8.72281 5.88245 8.54622C5.48976 8.36953 5.19147 8.03316 5.06309 7.62215C5.0271 7.49815 4.95131 7.38943 4.84746 7.31279C4.74361 7.23614 4.61742 7.19576 4.48837 7.19786H3.50311C2.57406 7.19786 1.68302 7.56697 1.02604 8.22398C0.369127 8.88089 2.11844e-05 9.77195 2.11844e-05 10.7011V12.48V12.4799C-0.00112425 12.6068 0.0442161 12.7296 0.127355 12.8255C0.210588 12.9212 0.325897 12.9833 0.45162 13C0.590504 13.0113 0.727967 12.9649 0.831526 12.8717C0.935093 12.7784 0.995707 12.6467 0.998952 12.5073V10.7011C0.998952 10.0369 1.26279 9.39995 1.73242 8.93032C2.20206 8.46068 2.83901 8.19685 3.50318 8.19685H4.0232C4.13335 8.19981 4.2331 8.2628 4.28322 8.36103C4.54219 8.85041 4.95597 9.24023 5.46006 9.46942C5.61851 9.54043 5.75309 9.65574 5.84778 9.80131C5.94247 9.94697 5.99306 10.1168 5.99373 10.2905V10.66V10.6599C5.99373 11.0955 6.16669 11.5132 6.47463 11.8211C6.78265 12.1291 7.20026 12.3021 7.63583 12.3021H7.96427C8.06393 12.3041 8.15614 12.3553 8.21054 12.4389C8.40698 12.7282 8.71825 12.919 9.06514 12.9629C9.41201 13.0068 9.76108 12.8995 10.0234 12.6684C10.2857 12.4372 10.4359 12.1043 10.4359 11.7547C10.4359 11.405 10.2857 11.0723 10.0234 10.8411C9.7611 10.6098 9.41201 10.5025 9.06514 10.5464C8.71827 10.5903 8.40698 10.7812 8.21054 11.0704C8.15613 11.1541 8.06392 11.2053 7.96427 11.2073H7.62217C7.47699 11.2073 7.33771 11.1497 7.2351 11.047C7.1324 10.9443 7.07474 10.8051 7.07474 10.6599V10.2631C7.07264 10.0958 7.1177 9.93131 7.20485 9.7885C7.29199 9.6457 7.41761 9.53041 7.56738 9.45576C8.054 9.22275 8.45242 8.83875 8.70316 8.361C8.75318 8.26278 8.85293 8.19978 8.96319 8.19682H9.48321H9.48311C10.1497 8.1931 10.7901 8.4554 11.2627 8.9254C11.7353 9.3954 12.0011 10.0345 12.0011 10.701V12.48V12.4799C11.9999 12.6067 12.0453 12.7296 12.1284 12.8254C12.2115 12.9212 12.3268 12.9832 12.4527 12.9999C12.5916 13.0113 12.7289 12.9649 12.8326 12.8716C12.9361 12.7784 12.9967 12.6467 13 12.5073V10.701C13 9.77191 12.6309 8.88085 11.974 8.22396C11.317 7.56695 10.4259 7.19785 9.49691 7.19785L9.49676 7.19786Z" fill="#0040A2"/>
</svg>
